<svg xmlns="http://www.w3.org/2000/svg" width="80" height="80" viewBox="0 0 80 80">
    <g fill="none" fill-rule="evenodd">
        <rect width="80" height="80" fill="#E61237" rx="40"/>
        <g fill="#FFF" fill-rule="nonzero">
            <path d="M40.137 21.043a18.57 18.57 0 0 0-13.4 5.65.828.828 0 0 0 .016 1.167.828.828 0 0 0 1.167-.017 16.918 16.918 0 0 1 12.217-5.15c9.41 0 17.068 7.659 17.068 17.068 0 9.409-7.659 17.068-17.068 17.068-9.409 0-17.068-7.659-17.068-17.068v-.675l2.009 2.008a.834.834 0 0 0 .583.242.834.834 0 0 0 .583-.242.82.82 0 0 0 0-1.166l-3.417-3.417a.82.82 0 0 0-1.166 0l-3.417 3.417a.82.82 0 0 0 0 1.166.834.834 0 0 0 .583.242.834.834 0 0 0 .584-.242l2.008-2.008v.675c0 10.317 8.392 18.718 18.718 18.718s18.718-8.4 18.718-18.718-8.4-18.718-18.718-18.718z"/>
            <path d="M40.137 29.452a5.488 5.488 0 0 0-5.484 5.483v2.834h-1.875a.822.822 0 0 0-.825.825v9.493c0 .458.367.825.825.825h14.71a.822.822 0 0 0 .825-.825v-9.501a.822.822 0 0 0-.825-.825h-1.875v-2.834c.008-3.017-2.45-5.475-5.476-5.475zm-3.833 5.483a3.834 3.834 0 0 1 7.667 0v2.834h-7.66v-2.834h-.007zm10.367 4.476v7.842H33.603v-7.842h13.068z"/>
        </g>
    </g>
</svg>
