<svg xmlns="http://www.w3.org/2000/svg" width="80" height="80" viewBox="0 0 80 80">
    <g fill="none" fill-rule="evenodd">
        <rect width="80" height="80" fill="#E61237" rx="40"/>
        <g fill="#FFF" fill-rule="nonzero" transform="translate(19 22)">
            <path d="M29.835 18.901a.827.827 0 0 0-1.091.425c-.709 1.592-1.717 3-3.009 4.184a.839.839 0 0 0-.266.608v10.217h-14.15v-3.067a.846.846 0 0 0-.284-.625.829.829 0 0 0-.658-.192l-3.792.567a1.995 1.995 0 0 1-1.933-1.983v-4.942a.822.822 0 0 0-.825-.825H2.544c-.409 0-.717-.117-.834-.3-.116-.192-.075-.517.117-.875l2.725-5.2a.866.866 0 0 0 .092-.383v-2.234c0-4.858 2.85-9.316 7.258-11.366a12.423 12.423 0 0 1 4.8-1.192.827.827 0 0 0 .792-.858.822.822 0 0 0-.859-.792C14.735.15 12.91.6 11.202 1.41c-4.983 2.325-8.2 7.375-8.2 12.866v2.017L.369 21.318c-.467.892-.492 1.8-.067 2.5s1.242 1.1 2.242 1.1h.458v4.108a3.636 3.636 0 0 0 3.633 3.634c.042 0 .084 0 .125-.009l2.909-.433v2.933c0 .459.366.825.825.825h15.808a.822.822 0 0 0 .825-.825V24.468a14.14 14.14 0 0 0 3.133-4.483.822.822 0 0 0-.425-1.084z"/>
            <path d="M37.56.076h-15.2a3.329 3.329 0 0 0-3.325 3.325v9.275a3.329 3.329 0 0 0 3.325 3.325h1.134v3.6a.83.83 0 0 0 .825.825.806.806 0 0 0 .575-.233l4.383-4.2h8.275a3.329 3.329 0 0 0 3.325-3.325V3.4A3.316 3.316 0 0 0 37.56.076zm1.675 12.6c0 .925-.75 1.675-1.675 1.675h-8.608a.794.794 0 0 0-.567.234l-3.225 3.091v-2.5a.822.822 0 0 0-.825-.825H22.36c-.925 0-1.675-.75-1.675-1.675V3.401c0-.925.75-1.675 1.675-1.675h15.192c.925 0 1.675.75 1.675 1.675v9.275h.008z"/>
            <ellipse cx="29.96" cy="8.026" rx="1.067" ry="1.067"/>
            <ellipse cx="33.694" cy="8.026" rx="1.067" ry="1.067"/>
            <ellipse cx="26.235" cy="8.026" rx="1.067" ry="1.067"/>
        </g>
    </g>
</svg>
