<svg xmlns="http://www.w3.org/2000/svg" width="80" height="80" viewBox="0 0 80 80">
    <g fill="none" fill-rule="evenodd">
        <rect width="80" height="80" fill="#E61237" rx="40"/>
        <g fill="#FFF" fill-rule="nonzero">
            <path d="M27.001 27.297c7.234-7.4 19.135-7.542 26.536-.308l-2.109.025a.827.827 0 0 0-.816.833.83.83 0 0 0 .825.817h.008l4.1-.05a.827.827 0 0 0 .817-.834l-.05-4.1a.822.822 0 0 0-.833-.817.827.827 0 0 0-.817.834l.025 2.108c-8.05-7.867-21.002-7.709-28.869.342a20.35 20.35 0 0 0-5.384 10.084 20.463 20.463 0 0 0 .767 11.1.84.84 0 0 0 .775.55.833.833 0 0 0 .775-1.108c-2.442-6.825-.817-14.292 4.25-19.476zM26.16 55.033a20.293 20.293 0 0 0 14.26 5.808h.24c5.46-.066 10.56-2.242 14.369-6.15a20.31 20.31 0 0 0 5.383-10.093 20.463 20.463 0 0 0-.766-11.1.833.833 0 0 0-1.059-.5.833.833 0 0 0-.5 1.058c2.45 6.825.825 14.293-4.242 19.476-3.508 3.584-8.192 5.593-13.21 5.65a18.642 18.642 0 0 1-13.325-5.341l2.108-.025a.827.827 0 0 0 .817-.834.83.83 0 0 0-.825-.816h-.008l-4.1.05a.828.828 0 0 0-.584.25.848.848 0 0 0-.233.583l.05 4.1a.83.83 0 0 0 .825.817h.008a.827.827 0 0 0 .817-.833l-.025-2.1z"/>
            <path d="M51.837 35.68a12.324 12.324 0 0 0-10.66-7.591c-.083-.009-.174-.009-.266-.017h-.033c-.05 0-.1-.008-.15-.008h-.025c-.092 0-.184-.009-.284-.009a12.25 12.25 0 0 0-4.717.942 12.228 12.228 0 0 0-6.684 6.684 12.226 12.226 0 0 0 0 9.45 12.324 12.324 0 0 0 11.418 7.635c.067 0 .125 0 .192-.009.033 0 .075.009.108.009.017 0 .033 0 .042-.009.075 0 .141-.008.216-.008h.084c.025 0 .041 0 .066-.008a12.246 12.246 0 0 0 4.017-.917 12.228 12.228 0 0 0 6.684-6.684c1.259-3.05 1.267-6.409 0-9.45-.008 0-.008 0-.008-.01 0 .01 0 .01 0 0zm-15.718-5.058c-.917 1.192-1.65 2.75-2.134 4.559h-2.892a10.654 10.654 0 0 1 5.026-4.559zm-5.776 6.217h3.284a21.371 21.371 0 0 0-.292 3.584c0 1.242.109 2.45.317 3.584h-3.309a10.586 10.586 0 0 1 0-7.168zm.75 8.81h2.942c.517 1.841 1.3 3.433 2.259 4.65a10.648 10.648 0 0 1-5.2-4.65zm8.81 5.35c-1.726-.509-3.26-2.575-4.134-5.35h4.133v5.35zm0-7h-4.56a17.835 17.835 0 0 1-.358-3.584c0-1.259.117-2.467.317-3.584h4.6v7.167zm0-8.81h-4.21c.843-2.867 2.376-4.892 4.21-5.359v5.36zm9.859-.008H47.47c-.425-1.592-1.034-2.984-1.8-4.1a10.687 10.687 0 0 1 4.092 4.1zm-8.21-5.359c1.834.475 3.36 2.5 4.21 5.359h-4.21v-5.359zm0 7.017h4.601a19.57 19.57 0 0 1 .317 3.584c0 1.242-.125 2.45-.359 3.584h-4.558v-7.168zm0 14.16v-5.35h4.134c-.875 2.775-2.408 4.841-4.133 5.35zm3.95-1.159c.81-1.141 1.468-2.575 1.926-4.192h2.334a10.574 10.574 0 0 1-4.26 4.192zm5.01-5.842h-2.709a19.84 19.84 0 0 0 .317-3.583c0-1.259-.1-2.459-.292-3.584h2.684a10.586 10.586 0 0 1 0 7.167z"/>
        </g>
    </g>
</svg>
