<svg xmlns="http://www.w3.org/2000/svg" width="80" height="80" viewBox="0 0 80 80">
    <g fill="none" fill-rule="evenodd">
        <rect width="80" height="80" fill="#E61237" rx="40"/>
        <g fill="#FFF" fill-rule="nonzero">
            <path d="M20.833 60.012h37.679a.822.822 0 0 0 .825-.825V30.15c0-.05-.009-.1-.017-.15a.118.118 0 0 0-.017-.05l-.025-.092c-.008-.016-.016-.041-.025-.058-.016-.025-.025-.05-.041-.075-.009-.017-.025-.033-.034-.05-.008-.008-.008-.017-.016-.025l-8.143-10.334a.821.821 0 0 0-.65-.317H28.976a.834.834 0 0 0-.65.317L20.183 29.65c-.008.008-.008.017-.016.025-.009.017-.025.033-.034.05a.338.338 0 0 0-.041.075c-.009.017-.017.033-.025.058l-.025.092c-.009.017-.009.033-.017.05a.918.918 0 0 0-.017.15v29.036c0 .458.375.825.825.825zm19.669-39.37h9.467l6.842 8.684h-16.31v-8.684zm-11.118 0h9.468v8.684H22.534l6.85-8.684zm-7.726 10.334h36.029v27.386H21.658V30.976z"/>
            <path d="M52.003 38.677H27.35a.822.822 0 0 0-.825.825c0 .458.366.825.825.825h24.652a.822.822 0 0 0 .825-.825.822.822 0 0 0-.825-.825zM47.319 44.327H32.034a.822.822 0 0 0-.825.825c0 .459.367.825.825.825H47.32a.822.822 0 0 0 .825-.825.822.822 0 0 0-.825-.825zM47.319 49.978H32.034a.822.822 0 0 0-.825.825c0 .458.367.825.825.825H47.32a.822.822 0 0 0 .825-.825.827.827 0 0 0-.825-.825z"/>
        </g>
    </g>
</svg>
