<svg xmlns="http://www.w3.org/2000/svg" width="61" height="53" viewBox="0 0 61 53">
    <g fill="#FFF" fill-rule="evenodd">
        <rect width="61" height="53" fill-opacity=".2" rx="26.5"/>
        <path d="M31 20a.973.973 0 0 0-.281-.719A.973.973 0 0 0 30 19a1.017 1.017 0 0 0-.86.484A.983.983 0 0 0 29 20v11.313l-3.656-3.688a1.424 1.424 0 0 0-.344-.203.968.968 0 0 0-.375-.078.968.968 0 0 0-.375.078c-.125.052-.24.12-.344.203a1.043 1.043 0 0 0-.281.719c0 .27.094.51.281.718l6.063 5.907 6.062-5.907a.988.988 0 0 0 .313-.718.961.961 0 0 0-.297-.703.979.979 0 0 0-.719-.297.954.954 0 0 0-.703.281L31 31.25V20z"/>
    </g>
</svg>
