<svg xmlns="http://www.w3.org/2000/svg" width="119" height="52" viewBox="0 0 119 52">
    <defs>
        <linearGradient id="a" x1="19.219%" x2="80.966%" y1="9.708%" y2="93.68%">
            <stop offset="0%" stop-color="#E61237"/>
            <stop offset="100%" stop-color="#E61237"/>
        </linearGradient>
    </defs>
    <g fill="none" fill-rule="evenodd">
        <path fill="#FFF" d="M62.407 4.696a.48.48 0 0 1-.028-.152c0-.11.044-.192.132-.247a.851.851 0 0 1 .479-.124c.222 0 .376.035.461.106.086.072.154.21.205.417l1.436 6.052c.204.845.326 1.412.368 1.701.05-.422.164-.99.34-1.7l1.436-6.053c.041-.184.114-.317.218-.4.104-.082.254-.123.448-.123.38 0 .608.174.687.523l1.436 6.052c.023.115.063.294.121.537.058.244.107.456.146.637.04.182.068.357.087.527.032-.248.145-.815.34-1.7l1.436-6.053c.05-.207.12-.345.208-.417.088-.07.245-.106.472-.106.166 0 .287.039.36.117.042.046.063.114.063.206 0 .06-.01.127-.028.2l-2.255 9c-.06.229-.142.375-.246.437-.104.062-.274.093-.51.093-.18 0-.319-.042-.416-.124-.097-.083-.171-.218-.222-.407L68.06 7.63c-.083-.335-.16-.792-.229-1.37a14.32 14.32 0 0 1-.256 1.37l-1.533 6.066c-.06.23-.142.376-.243.438-.102.062-.266.093-.493.093-.19 0-.334-.043-.434-.128-.099-.085-.17-.219-.211-.403l-2.255-8.999zm13.978 8.111V5.53c0-.404.083-.722.25-.954.166-.231.472-.347.916-.347h4.28c.32 0 .48.183.48.55 0 .359-.16.538-.48.538h-3.857c-.139 0-.237.03-.295.09-.058.059-.087.16-.087.302v2.74h3.358c.3 0 .451.175.451.524 0 .344-.15.516-.45.516h-3.359v3.133c0 .143.03.244.087.303.058.06.156.09.295.09h3.857c.32 0 .48.183.48.55 0 .359-.16.538-.48.538h-4.28c-.444 0-.75-.115-.916-.345-.167-.23-.25-.546-.25-.95zm8.338-1.411a.4.4 0 0 1 .176-.341.7.7 0 0 1 .42-.128c.2 0 .348.046.448.138.1.092.154.211.163.358.004.372.121.703.35.992.23.289.53.51.902.664.372.154.783.23 1.232.23.61 0 1.135-.169 1.574-.509.44-.34.66-.798.66-1.377a1.51 1.51 0 0 0-.288-.878 1.45 1.45 0 0 0-.333-.31 3.424 3.424 0 0 0-.385-.237 3.273 3.273 0 0 0-.451-.183 8.08 8.08 0 0 0-.444-.137c-.111-.03-.26-.068-.444-.114-.824-.211-1.402-.39-1.735-.537-.795-.353-1.288-.868-1.478-1.542a2.783 2.783 0 0 1-.097-.758c0-.44.093-.836.278-1.188.185-.35.432-.633.742-.846.31-.214.655-.377 1.034-.49.38-.112.775-.168 1.186-.168.61 0 1.15.077 1.617.23.467.154.866.413 1.197.775.33.363.546.822.648 1.377.01.046.014.09.014.131 0 .28-.185.42-.555.42-.347 0-.555-.151-.624-.454a1.728 1.728 0 0 0-.888-1.17 2.798 2.798 0 0 0-.69-.256 3.457 3.457 0 0 0-.767-.082c-.514 0-.961.148-1.343.444-.381.296-.572.703-.572 1.222 0 .129.018.25.055.362.037.112.079.212.125.3a.87.87 0 0 0 .219.254c.1.083.182.15.25.203.066.053.173.11.319.169.145.06.253.104.322.134.07.03.189.069.357.117a9.823 9.823 0 0 0 .656.169c.87.21 1.492.404 1.866.578.847.39 1.349.966 1.506 1.728.042.193.062.4.062.62 0 .491-.1.933-.301 1.326-.202.392-.471.707-.809.943a3.893 3.893 0 0 1-1.13.54 4.571 4.571 0 0 1-1.312.186 5.5 5.5 0 0 1-1.394-.168 4.013 4.013 0 0 1-1.173-.51 2.455 2.455 0 0 1-.836-.912 2.899 2.899 0 0 1-.33-1.315zm9.565-6.617c0-.368.16-.551.479-.551h5.599c.324 0 .485.183.485.55 0 .359-.161.538-.485.538H98.18v8.393c0 .344-.203.517-.61.517-.398 0-.597-.173-.597-.517V5.316h-2.206c-.32 0-.479-.18-.479-.537zM62.664 25.91c0-.77.077-1.46.232-2.069a4.892 4.892 0 0 1 .711-1.6c.32-.46.745-.813 1.277-1.06.532-.249 1.156-.373 1.873-.373.971 0 1.774.285 2.408.854.633.57.985 1.338 1.054 2.307a.46.46 0 0 1 .007.075c0 .12-.042.216-.125.29a.736.736 0 0 1-.41.151c-.37 0-.573-.144-.61-.434a3.862 3.862 0 0 0-.246-.881 2.842 2.842 0 0 0-.444-.733 1.884 1.884 0 0 0-.694-.513 2.297 2.297 0 0 0-.94-.186 2.95 2.95 0 0 0-.93.138 2.282 2.282 0 0 0-.7.361c-.19.15-.358.336-.503.561a3.3 3.3 0 0 0-.344.689c-.083.234-.15.497-.2.788-.052.292-.085.564-.102.816-.016.253-.024.526-.024.82 0 .293.008.566.024.819.017.252.05.524.101.816.05.291.118.553.201.785.084.232.198.459.344.681.145.223.313.41.503.562.19.151.423.272.7.361.278.09.588.134.93.134.347 0 .66-.062.94-.186.28-.123.511-.293.694-.51.183-.215.33-.458.444-.729.113-.27.195-.567.246-.888.042-.28.23-.42.562-.42h.049c.171.009.307.057.41.144a.383.383 0 0 1 .124.303.46.46 0 0 1-.007.076c-.07.914-.418 1.666-1.047 2.259-.63.592-1.434.888-2.415.888-.573 0-1.09-.082-1.547-.245a3.286 3.286 0 0 1-1.159-.685A3.711 3.711 0 0 1 63.264 29a5.335 5.335 0 0 1-.458-1.405 9.261 9.261 0 0 1-.142-1.684zm10.412 0c0-.762.08-1.45.242-2.065a4.872 4.872 0 0 1 .732-1.608c.327-.457.754-.809 1.284-1.057.53-.248 1.141-.372 1.835-.372s1.304.124 1.832.372c.527.248.954.6 1.28 1.057.326.457.57.993.732 1.608a8.12 8.12 0 0 1 .243 2.065c0 .762-.083 1.451-.247 2.066a4.842 4.842 0 0 1-.739 1.605 3.274 3.274 0 0 1-1.28 1.053c-.525.248-1.132.372-1.82.372-.69 0-1.298-.124-1.826-.372a3.269 3.269 0 0 1-1.283-1.053 4.842 4.842 0 0 1-.739-1.605 8.012 8.012 0 0 1-.246-2.066zm1.29 0c0 2.773.934 4.16 2.803 4.16 1.864 0 2.796-1.387 2.796-4.16 0-2.781-.932-4.172-2.796-4.172-1.869 0-2.803 1.39-2.803 4.172zm9.212 4.531l3.01-9c.112-.348.369-.523.771-.523.398 0 .652.175.763.524l3.025 9c.028.077.042.148.042.213 0 .21-.155.316-.465.316-.227 0-.405-.036-.534-.11-.13-.073-.227-.209-.292-.406l-.79-2.486h-3.484l-.797 2.486a1.02 1.02 0 0 1-.316.396c-.118.08-.288.12-.51.12-.31 0-.465-.105-.465-.316 0-.065.014-.136.042-.214zm2.345-3.401h2.886l-.985-3.002c-.107-.313-.261-.918-.465-1.818-.143.698-.3 1.303-.472 1.818l-.964 3.002zm7.685 1.101a.4.4 0 0 1 .177-.34.7.7 0 0 1 .42-.128c.199 0 .348.046.447.138.1.092.154.211.163.358.005.372.122.702.35.991.23.29.53.511.903.665.372.154.782.23 1.231.23.61 0 1.136-.17 1.575-.509.44-.34.66-.799.66-1.377a1.51 1.51 0 0 0-.288-.878 1.45 1.45 0 0 0-.334-.31 3.424 3.424 0 0 0-.385-.237 3.273 3.273 0 0 0-.45-.183 8.08 8.08 0 0 0-.445-.138c-.11-.03-.259-.067-.444-.113-.823-.211-1.401-.39-1.734-.537-.796-.354-1.288-.868-1.478-1.543a2.783 2.783 0 0 1-.097-.757c0-.44.092-.837.277-1.188.185-.35.433-.633.743-.847.31-.213.654-.376 1.033-.489.38-.112.775-.168 1.187-.168.61 0 1.15.077 1.616.23.467.154.866.412 1.197.775.33.363.547.822.649 1.377.01.046.014.09.014.131 0 .28-.185.42-.555.42-.347 0-.555-.151-.625-.454a1.728 1.728 0 0 0-.888-1.171 2.798 2.798 0 0 0-.69-.255 3.457 3.457 0 0 0-.767-.082c-.513 0-.96.148-1.342.444-.382.296-.573.703-.573 1.222 0 .128.019.249.056.361.037.113.078.213.125.3a.87.87 0 0 0 .218.255c.1.082.183.15.25.203.067.053.173.109.32.169l.322.134c.07.03.188.069.357.117a9.822 9.822 0 0 0 .656.169c.87.21 1.491.403 1.866.578.846.39 1.348.966 1.506 1.728.041.193.062.4.062.62 0 .491-.1.933-.302 1.325-.201.393-.47.707-.808.944a3.893 3.893 0 0 1-1.13.54 4.571 4.571 0 0 1-1.312.186 5.5 5.5 0 0 1-1.395-.169 4.013 4.013 0 0 1-1.172-.51 2.455 2.455 0 0 1-.836-.911 2.899 2.899 0 0 1-.33-1.316zm9.566-6.617c0-.367.16-.55.478-.55h5.6c.323 0 .485.183.485.55 0 .358-.162.537-.486.537h-2.185v8.394c0 .344-.204.516-.61.516-.398 0-.597-.172-.597-.516v-8.394h-2.207c-.319 0-.478-.179-.478-.537zM63.087 47.187v-8.986c0-.179.057-.313.17-.403a.69.69 0 0 1 .44-.134c.195 0 .35.042.465.124.116.083.227.22.333.413l2.456 4.682 2.443-4.682c.106-.193.217-.33.333-.413.115-.082.27-.124.464-.124a.69.69 0 0 1 .441.134c.113.09.17.224.17.403v8.986c0 .353-.176.53-.527.53-.389 0-.583-.172-.583-.516v-7.56a9.602 9.602 0 0 1-.368.86l-1.72 3.257c-.185.34-.403.51-.653.51-.259 0-.48-.17-.666-.51l-1.72-3.257a9.602 9.602 0 0 1-.368-.86v7.56c0 .344-.194.516-.583.516-.351 0-.527-.177-.527-.53zm11.126-4.53c0-.763.081-1.451.243-2.066a4.872 4.872 0 0 1 .732-1.608c.326-.457.754-.81 1.284-1.057.53-.248 1.141-.372 1.835-.372s1.304.124 1.832.372c.527.248.953.6 1.28 1.057.326.457.57.992.732 1.608a8.12 8.12 0 0 1 .242 2.065c0 .762-.082 1.45-.246 2.066a4.842 4.842 0 0 1-.739 1.604 3.274 3.274 0 0 1-1.28 1.054c-.525.248-1.132.372-1.821.372-.69 0-1.298-.124-1.825-.372a3.269 3.269 0 0 1-1.283-1.054 4.842 4.842 0 0 1-.74-1.604 8.012 8.012 0 0 1-.246-2.066zm1.29 0c0 2.772.935 4.158 2.804 4.158 1.864 0 2.796-1.386 2.796-4.159 0-2.782-.932-4.172-2.796-4.172-1.869 0-2.803 1.39-2.803 4.172zm9.213-4.47a.531.531 0 0 1-.035-.179.25.25 0 0 1 .11-.22c.117-.082.272-.124.466-.124.226 0 .385.036.475.107.09.071.168.21.232.416l1.992 6.053c.291.872.467 1.434.527 1.687.134-.601.303-1.164.506-1.687l1.992-6.053c.064-.206.142-.345.232-.416.09-.071.249-.107.475-.107.195 0 .35.042.465.124a.261.261 0 0 1 .111.22.531.531 0 0 1-.035.18l-3.08 8.999c-.116.353-.333.53-.652.53-.116 0-.208-.009-.278-.027a.513.513 0 0 1-.222-.148.965.965 0 0 1-.2-.355l-3.081-9zm10.682 9v-9c0-.348.199-.523.597-.523.171 0 .315.04.433.12.118.081.177.215.177.404v8.999c0 .353-.203.53-.61.53-.398 0-.597-.177-.597-.53zm5.042.11v-9.11c0-.179.065-.31.194-.395a.868.868 0 0 1 .486-.128c.347 0 .599.142.756.427l4.545 7.85a12.948 12.948 0 0 1-.14-1.9v-5.95c0-.128.052-.232.154-.31a.597.597 0 0 1 .374-.117c.347 0 .52.142.52.427v9.124c0 .17-.063.296-.19.378a.882.882 0 0 1-.49.124.838.838 0 0 1-.763-.42l-4.495-7.767c.069.51.104 1.008.104 1.494v6.273c0 .28-.176.42-.528.42-.351 0-.527-.14-.527-.42zm10.301-4.64c0-.772.076-1.462.229-2.07a4.839 4.839 0 0 1 .708-1.6c.319-.46.745-.813 1.28-1.061.534-.248 1.16-.372 1.876-.372.8 0 1.506.208 2.117.623.61.416 1.022 1.016 1.234 1.8a.87.87 0 0 1 .035.235.493.493 0 0 1-.076.275c-.083.129-.213.193-.389.193-.212 0-.374-.033-.485-.1-.111-.066-.2-.205-.264-.416a2.548 2.548 0 0 0-.801-1.209c-.377-.314-.834-.471-1.37-.471-.398 0-.753.058-1.066.175a1.986 1.986 0 0 0-.77.5c-.2.215-.37.452-.506.709a3.246 3.246 0 0 0-.305.884 9.079 9.079 0 0 0-.184 1.904c0 .395.025.776.076 1.143s.145.738.281 1.112c.137.374.309.7.517.975.208.275.483.499.826.67.342.173.733.26 1.172.26.384 0 .73-.09 1.037-.27.308-.178.555-.416.743-.712.187-.296.33-.623.426-.981.093-.345.14-.7.14-1.068v-.055c0-.197-.086-.296-.258-.296h-1.894c-.3 0-.45-.165-.45-.495 0-.317.15-.476.45-.476h2.165c.264 0 .473.021.628.062a.653.653 0 0 1 .36.228.86.86 0 0 1 .167.392c.026.152.038.36.038.627a4.989 4.989 0 0 1-.236 1.504c-.152.47-.373.892-.662 1.264-.29.372-.665.666-1.128.885a3.634 3.634 0 0 1-1.568.327c-.888 0-1.643-.22-2.265-.658-.622-.438-1.082-1.035-1.38-1.79-.299-.755-.448-1.638-.448-2.648z"/>
        <path fill="url(#a)" d="M26.642.004A26.926 26.926 0 0 0 26.198 0C11.729 0 0 11.64 0 26s11.73 26 26.198 26c.148 0 .296-.001.444-.004V.004z"/>
        <path fill="#AF102C" d="M26.642 0h25.754v52H26.642z"/>
        <path fill="#FFF" d="M12.433 16.746h5.485l7.313 16.188-2.742 5.846zM23.86 16.746h5.485l7.314 16.188-2.743 5.846zM43.515 16.746H38.03l-1.682 3.929 2.637 6.316z"/>
    </g>
</svg>
