<svg xmlns="http://www.w3.org/2000/svg" width="35" height="48" viewBox="0 0 35 48">
    <path fill="#E61237" fill-rule="evenodd" d="M18.005 47.747a.607.607 0 0 1-.214.214l-.214-.214-.911-1.019a1385.182 1385.182 0 0 1-3.162-3.67c-.75-.876-1.804-2.153-3.162-3.832-1.357-1.679-2.429-3.099-3.215-4.26a137.432 137.432 0 0 1-2.733-4.233C3.358 29.07 2.564 27.57 2.01 26.23a31.703 31.703 0 0 1-1.42-4.34C.195 20.337 0 18.863 0 17.47c0-3.109.786-6.011 2.358-8.708C3.93 6.064 6.046 3.93 8.708 2.358 11.37.786 14.254 0 17.362 0c2.823 0 5.341.491 7.556 1.474 2.215.982 3.993 2.313 5.332 3.992a17.989 17.989 0 0 1 3.028 5.573c.679 2.036 1.018 4.18 1.018 6.43 0 7.717-5.43 17.81-16.29 30.278zM17.148 9.71c-.806 0-1.593.13-2.36.39a7.427 7.427 0 0 0-2.069 1.073 7.96 7.96 0 0 0-1.619 1.62 7.111 7.111 0 0 0-1.073 2.068 7.472 7.472 0 0 0-.37 2.34c0 2.082.734 3.85 2.204 5.307 1.47 1.457 3.239 2.185 5.307 2.185 2.068 0 3.83-.728 5.287-2.185 1.456-1.457 2.185-3.225 2.185-5.306a7.393 7.393 0 0 0-.586-2.907 7.236 7.236 0 0 0-1.6-2.38 7.907 7.907 0 0 0-2.4-1.6 7.188 7.188 0 0 0-2.906-.605z"/>
</svg>
